HIERARCHY
ROOT root
{
	OFFSET 0.000000 0.000000 0.000000
	CHANNELS 6 Xposition Yposition Zposition Zrotation Yrotation Xrotation
	JOINT lhip
	{
		OFFSET 0.058581 -0.082280 -0.017664
		CHANNELS 3 Zrotation Yrotation Xrotation
		JOINT lknee
		{
			OFFSET 0.043451 -0.386469 0.008037
			CHANNELS 3 Zrotation Yrotation Xrotation
			JOINT lankle
			{
				OFFSET -0.014790 -0.426874 -0.037428
				CHANNELS 3 Zrotation Yrotation Xrotation
				JOINT ltoe
				{
					OFFSET 0.041054 -0.060286 0.122042
					CHANNELS 3 Zrotation Yrotation Xrotation
					End Site
					{
						OFFSET 0.000000 0.000000 0.000000
					}
				}
			}
		}
	}
	JOINT rhip
	{
		OFFSET -0.060310 -0.090513 -0.013543
		CHANNELS 3 Zrotation Yrotation Xrotation
		JOINT rknee
		{
			OFFSET -0.043257 -0.383688 -0.004843
			CHANNELS 3 Zrotation Yrotation Xrotation
			JOINT rankle
			{
				OFFSET 0.019056 -0.420046 -0.034562
				CHANNELS 3 Zrotation Yrotation Xrotation
				JOINT rtoe
				{
					OFFSET -0.034840 -0.062106 0.130323
					CHANNELS 3 Zrotation Yrotation Xrotation
					End Site
					{
						OFFSET 0.000000 0.000000 0.000000
					}
				}
			}
		}
	}
	JOINT lowerback
	{
		OFFSET 0.004439 0.124404 -0.038385
		CHANNELS 3 Zrotation Yrotation Xrotation
		JOINT upperback
		{
			OFFSET 0.004488 0.137956 0.026820
			CHANNELS 3 Zrotation Yrotation Xrotation
			JOINT chest
			{
				OFFSET -0.002265 0.056032 0.002855
				CHANNELS 3 Zrotation Yrotation Xrotation
				JOINT lowerneck
				{
					OFFSET -0.013390 0.211636 -0.033468
					CHANNELS 3 Zrotation Yrotation Xrotation
					JOINT upperneck
					{
						OFFSET 0.010113 0.088937 0.050410
						CHANNELS 3 Zrotation Yrotation Xrotation
						End Site
						{
							OFFSET 0.000000 0.000000 0.000000
						}
					}
				}
				JOINT lclavicle
				{
					OFFSET 0.071702 0.114000 -0.018898
					CHANNELS 3 Zrotation Yrotation Xrotation
					JOINT lshoulder
					{
						OFFSET 0.122921 0.045205 -0.019046
						CHANNELS 3 Zrotation Yrotation Xrotation
						JOINT lelbow
						{
							OFFSET 0.255332 -0.015649 -0.022946
							CHANNELS 3 Zrotation Yrotation Xrotation
							JOINT lwrist
							{
								OFFSET 0.265709 0.012698 -0.007375
								CHANNELS 3 Zrotation Yrotation Xrotation
								End Site
								{
									OFFSET 0.000000 0.000000 0.000000
								}
							}
						}
					}
				}
				JOINT rclavicle
				{
					OFFSET -0.082954 0.112472 -0.023707
					CHANNELS 3 Zrotation Yrotation Xrotation
					JOINT rshoulder
					{
						OFFSET -0.113228 0.046853 -0.008472
						CHANNELS 3 Zrotation Yrotation Xrotation
						JOINT relbow
						{
							OFFSET -0.260127 -0.014369 -0.031269
							CHANNELS 3 Zrotation Yrotation Xrotation
							JOINT rwrist
							{
								OFFSET -0.269108 0.006794 -0.006027
								CHANNELS 3 Zrotation Yrotation Xrotation
								End Site
								{
									OFFSET 0.000000 0.000000 0.000000
								}
							}
						}
					}
				}
			}
		}
	}
}
MOTION
Frames: 14
Frame Time: 0.033333
0.539580 0.717112 1.276110 -105.892940 -2.025594 86.814157 9.270357 -6.404267 -43.179562 -0.101322 15.451158 48.913545 2.143291 9.065660 -29.161136 0.000000 -0.000000 0.000000 -4.953926 -0.804522 12.741204 0.299084 6.047577 20.256473 11.411926 9.773458 -18.603497 0.000000 -0.000000 0.000000 -2.596066 14.505043 26.175482 0.310486 -1.437477 2.502379 0.951638 4.686395 0.533986 2.039190 2.864250 5.590680 0.440109 -7.560648 11.741797 -22.678572 -2.329379 2.497195 -62.925127 3.038309 5.132175 14.000989 -28.756387 8.431784 -11.352984 -12.635194 -1.324533 23.347477 13.772452 1.741356 58.790155 17.666314 9.228977 -20.086989 35.629663 -5.210970 5.208281 6.462538 -6.808220 
0.510767 0.712403 1.291009 -105.165917 -2.033303 88.137186 8.103600 -7.542240 -41.080544 -0.731036 15.501813 46.405316 3.062235 9.841998 -30.624311 0.000000 -0.000000 0.000000 -5.440818 -0.208956 10.770298 0.156652 5.265630 23.302716 14.170752 9.530032 -10.027546 0.000000 -0.000000 0.000000 -3.451171 14.348915 25.448914 0.371331 -1.432775 2.503394 1.034077 4.505551 0.703687 1.876546 2.208191 5.557824 1.215987 -7.656655 11.101219 -22.611170 -2.983019 2.353335 -62.795920 1.371152 6.006975 14.437875 -29.267900 6.859407 -11.737750 -12.500988 -0.168283 23.371015 12.791819 1.522997 58.992524 15.366626 9.237737 -21.028918 33.328059 -7.145709 5.926007 5.972406 -5.741950 
0.482679 0.708927 1.307623 -104.262319 -1.425327 89.322920 6.875048 -7.676607 -38.660449 -1.389801 14.264197 43.596930 3.599502 10.327849 -31.543727 0.000000 -0.000000 0.000000 -4.804536 -0.467703 7.066500 -0.382601 4.654409 28.929668 15.776456 8.122841 -1.345853 0.000000 -0.000000 0.000000 -3.855424 13.515299 25.230955 0.449826 -1.352902 1.700093 1.347429 3.973342 0.908184 1.041210 1.505613 5.773173 2.220468 -6.350293 10.307390 -22.840029 -2.807259 1.770825 -62.255308 0.185387 6.211935 14.096525 -30.623632 6.462159 -12.207068 -12.458438 -0.146353 23.186139 11.647335 1.567516 59.485418 13.093539 9.149594 -21.068297 30.854163 -8.167541 6.406564 5.258665 -4.744718 
0.456079 0.704394 1.323767 -102.800274 -1.479162 89.602792 5.067430 -9.160355 -35.174789 -2.095888 12.974847 40.067536 4.350356 11.489838 -31.788884 0.000000 -0.000000 0.000000 -4.216045 1.078975 2.751831 -0.606637 3.035360 37.182265 15.650859 4.565868 5.393143 0.000000 -0.000000 0.000000 -4.772649 12.251654 25.283760 0.681145 -1.283194 1.643132 1.438370 3.582112 1.150409 1.252709 1.295230 5.874288 2.472372 -5.627866 9.811622 -22.530189 -3.711271 2.315383 -62.188735 -1.856730 7.197880 15.114913 -32.005193 3.988346 -12.153566 -12.526263 -0.058487 23.233674 10.680351 1.096771 59.588643 10.149082 9.808142 -21.276647 28.595119 -9.329980 7.525525 4.624219 -4.272144 
0.430724 0.701438 1.338670 -101.582554 -1.168749 89.759542 3.454438 -9.911037 -31.621832 -2.464228 11.062924 36.711754 5.003565 12.467556 -31.989800 0.000000 -0.000000 0.000000 -3.034648 1.826971 -3.025737 -1.513797 1.733417 46.760685 15.512914 0.287148 9.738139 0.000000 -0.000000 0.000000 -5.350001 10.487681 25.446720 0.832994 -1.047098 1.468205 1.560806 2.859993 1.199294 0.593671 0.801211 6.135319 2.798138 -3.935528 9.402127 -22.858748 -3.489414 1.781213 -60.921110 -3.260507 7.720647 14.815882 -34.219553 3.519079 -11.945619 -12.473857 -0.545166 23.476850 9.687430 1.261466 59.602659 7.711427 10.522775 -20.896281 26.717041 -9.795477 7.303603 4.217662 -2.733875 
0.405516 0.698564 1.351967 -100.249269 -0.860073 88.967648 1.587960 -10.540309 -26.896874 -2.789582 8.577470 33.077435 5.172966 13.705895 -32.233111 0.000000 -0.000000 0.000000 -2.133291 3.762061 -7.834915 -1.927582 -0.622054 54.877325 13.110456 -2.070069 5.444207 0.000000 -0.000000 0.000000 -5.733146 8.473734 26.152745 1.021606 -0.963965 1.412089 1.437914 2.463622 1.830678 1.304940 1.857817 5.969877 2.806364 -4.325605 9.358285 -22.494308 -3.907176 1.167762 -60.273367 -4.952199 8.870128 15.447635 -35.861090 2.107401 -12.157331 -12.644307 0.173690 23.940486 8.507625 0.530636 59.466063 4.779110 10.805247 -20.585491 25.781984 -9.031055 8.442790 3.843259 -1.251336 
0.381695 0.696491 1.364107 -98.836547 -0.272113 88.239675 0.059132 -10.314679 -22.393628 -2.951371 5.549136 29.695241 4.947832 14.481625 -32.324076 0.000000 -0.000000 0.000000 -1.450615 4.676607 -13.189976 -2.818131 -2.648693 61.113152 12.034749 -3.077840 -0.541160 0.000000 -0.000000 0.000000 -5.530618 6.394399 27.031678 1.198552 -0.963487 1.015387 1.393394 1.722492 2.036062 1.390042 2.858476 6.532712 2.510310 -4.059919 9.478639 -22.589900 -4.082146 0.682919 -59.266647 -6.119431 9.334826 15.791979 -37.900389 2.097720 -12.529411 -12.501256 0.639353 24.239412 7.065256 0.385965 59.373963 2.046933 10.202798 -20.122799 25.342118 -7.700421 9.417582 3.749983 -0.286179 
0.359441 0.695166 1.374623 -97.637546 0.539612 87.640662 -0.630807 -9.718333 -18.347194 -3.199306 2.896283 26.701077 4.592095 14.992905 -32.351599 0.000000 -0.000000 0.000000 -0.899779 5.616976 -18.971038 -3.791182 -4.651773 65.404866 10.860424 -4.458893 -6.829979 0.000000 -0.000000 0.000000 -5.145185 4.465765 27.542109 1.481631 -0.901158 0.849493 1.389973 0.821819 2.095682 1.459657 3.761160 7.018063 2.082338 -3.573705 9.500638 -22.436456 -4.371864 1.137742 -58.739848 -7.618993 9.288262 16.820498 -39.861413 1.080570 -12.253426 -12.478585 1.053139 24.147931 5.700773 0.812104 59.677364 -0.291227 9.343991 -20.092462 24.942086 -6.926466 10.462578 3.535757 -0.309066 
0.338253 0.694329 1.383976 -96.522919 1.450520 87.047589 -0.953332 -8.405794 -14.454579 -3.371396 0.120155 23.823457 4.219465 14.959504 -32.614607 0.000000 -0.000000 0.000000 -0.570455 6.456258 -24.855217 -4.748506 -6.718204 67.628532 9.545490 -6.604983 -12.236488 0.000000 -0.000000 0.000000 -4.612040 2.262322 28.175399 1.589846 -0.688412 0.516237 1.335436 0.016467 2.394206 1.251063 4.571678 7.129212 1.894118 -3.203184 9.714887 -22.364959 -3.938520 0.706187 -57.996689 -9.207727 9.310233 16.861384 -41.325048 0.699963 -11.781760 -12.476306 0.610367 24.179345 4.319107 1.060128 59.944725 -2.137783 8.682210 -19.986581 24.139074 -7.041766 9.600078 3.838552 0.058438 
0.318129 0.693504 1.391318 -95.332014 2.299827 86.429552 -0.978316 -7.332974 -10.851059 -3.491895 -2.262882 21.284440 3.874666 14.941719 -32.943256 0.000000 -0.000000 0.000000 -0.858117 6.930976 -30.631791 -5.259153 -8.946968 67.964273 8.759773 -7.916718 -15.410270 0.000000 -0.000000 0.000000 -4.171164 0.433553 28.401913 1.864715 -0.601376 0.841212 1.330214 -0.713623 2.696399 1.406194 5.501274 6.851919 1.705658 -3.175408 10.145768 -21.936316 -4.105026 0.593136 -57.643916 -11.159780 9.842298 17.022585 -41.907844 -0.383186 -9.944163 -12.812535 0.132487 24.071056 3.047606 1.041831 60.156110 -3.771362 8.306602 -19.989129 23.297260 -7.797211 8.531517 3.725144 0.026116 
0.298527 0.693372 1.396952 -94.161018 3.050265 85.973714 -0.630828 -6.218247 -7.558091 -3.811437 -4.439108 18.778950 3.470859 14.742888 -33.266908 0.000000 -0.000000 0.000000 -1.487334 7.082381 -35.998284 -4.851420 -10.904255 66.311208 8.722554 -8.110844 -18.088891 0.000000 -0.000000 0.000000 -3.933359 -1.225244 28.406869 2.138576 -0.623377 0.885037 1.261586 -1.234136 3.110364 2.065701 6.456983 6.956048 1.436846 -3.484781 10.678770 -21.527421 -4.109499 0.493377 -57.371393 -13.169584 10.372968 17.525889 -42.095095 -0.873199 -9.213033 -13.259098 0.431592 24.196231 1.617616 1.188052 60.370382 -5.085357 7.963633 -20.017218 22.053557 -7.300986 9.511630 3.561764 -0.470234 
0.279343 0.693603 1.400925 -93.034440 3.629433 85.575903 -0.302647 -4.765635 -4.628089 -3.851172 -6.441724 16.689950 3.145791 14.080687 -33.903036 0.000000 -0.000000 0.000000 -2.115383 6.686265 -40.618304 -4.297029 -12.430467 63.306449 9.093590 -7.659053 -19.844268 0.000000 -0.000000 0.000000 -3.667118 -2.590624 28.427868 2.299677 -0.805371 1.080130 1.305554 -1.864421 3.409830 2.284262 7.267324 6.902897 1.477791 -3.783315 11.028338 -21.005474 -4.369698 0.603361 -57.268720 -14.527104 10.534784 18.006125 -42.720365 -1.160698 -8.422830 -13.537584 1.320388 24.043652 0.588900 1.435349 60.846080 -6.178601 7.231544 -19.948029 21.033405 -7.084783 10.057602 3.338106 -0.162348 
0.260236 0.694335 1.403301 -91.915786 4.153474 85.286012 0.114651 -3.334945 -2.213051 -3.853088 -8.497108 15.569849 2.860876 13.190804 -34.621934 0.000000 -0.000000 0.000000 -2.611190 5.965254 -44.366777 -3.810485 -13.693951 59.454966 9.146837 -7.151869 -20.560785 0.000000 -0.000000 0.000000 -3.368290 -3.769484 28.412151 2.383740 -0.911184 1.203967 1.320188 -2.416497 3.672062 2.410005 7.806992 6.798267 1.539745 -4.207734 11.243898 -20.874677 -4.221055 0.430166 -57.018369 -15.771992 10.815787 18.073137 -43.503774 -0.819425 -8.488333 -13.814139 1.715337 24.259828 -0.364795 1.504720 61.067799 -7.289397 6.708951 -19.800648 19.961656 -6.725775 10.720049 3.249277 0.045221 
0.240990 0.695376 1.404773 -91.162033 4.553249 85.041395 0.592694 -2.615504 0.399595 -3.791955 -9.933638 13.851755 2.727888 12.908109 -35.242795 0.000000 -0.000000 0.000000 -2.990608 5.622375 -47.226309 -2.946735 -14.520058 55.428799 9.393102 -6.762607 -20.345304 0.000000 -0.000000 0.000000 -3.300025 -4.680867 28.206038 2.482494 -0.998500 1.313291 1.282621 -2.588855 4.046067 2.905884 8.316204 6.666253 1.429428 -4.763134 11.620683 -20.635899 -4.119828 0.543042 -57.002436 -17.106350 11.310428 18.057015 -43.778809 -0.865649 -8.565341 -14.161699 2.004207 24.538623 -1.083257 1.783094 61.493357 -7.907827 6.599257 -19.906148 18.475833 -6.748113 11.265444 3.008064 0.453154 
